<svg width="5" height="11" viewBox="0 0 5 11" fill="none" xmlns="http://www.w3.org/2000/svg">
<path d="M0.206184 0.228456C0.140851 0.30149 0.0889952 0.38838 0.0536073 0.484116C0.0182193 0.579851 0 0.682537 0 0.786249C0 0.88996 0.0182193 0.992646 0.0536073 1.08838C0.0889952 1.18412 0.140851 1.27101 0.206184 1.34404L3.39864 4.94221C3.46397 5.01524 3.51583 5.10213 3.55122 5.19787C3.58661 5.2936 3.60483 5.39629 3.60483 5.5C3.60483 5.60371 3.58661 5.7064 3.55122 5.80213C3.51583 5.89787 3.46397 5.98476 3.39864 6.05779L0.206184 9.65596C0.140851 9.72899 0.0889952 9.81588 0.0536073 9.91162C0.0182193 10.0074 0 10.11 0 10.2138C0 10.3175 0.0182193 10.4201 0.0536073 10.5159C0.0889952 10.6116 0.140851 10.6985 0.206184 10.7715C0.336784 10.9179 0.513451 11 0.697599 11C0.881748 11 1.05841 10.9179 1.18901 10.7715L4.38844 7.16553C4.78004 6.72361 5 6.12457 5 5.5C5 4.87543 4.78004 4.27639 4.38844 3.83448L1.18901 0.228456C1.05841 0.0821323 0.881748 0 0.697599 0C0.513451 0 0.336784 0.0821323 0.206184 0.228456Z" fill="white"/>
</svg>
