<svg width="85" height="21" viewBox="0 0 85 21" fill="none" xmlns="http://www.w3.org/2000/svg">
<path d="M17.206 20.66C16.634 20.66 16.106 20.484 15.622 20.132C15.182 19.78 14.962 19.274 14.962 18.614V10.298C14.962 8.362 14.522 6.932 13.642 6.008C12.806 5.084 11.684 4.622 10.276 4.622C8.472 4.622 7.152 5.216 6.316 6.404C5.524 7.548 5.128 8.824 5.128 10.232V18.614C5.128 19.274 4.886 19.78 4.402 20.132C3.962 20.484 3.456 20.66 2.884 20.66C2.312 20.66 1.784 20.484 1.3 20.132C0.86 19.78 0.64 19.274 0.64 18.614V3.104C0.64 2.356 0.86 1.806 1.3 1.454C1.784 1.058 2.312 0.859999 2.884 0.859999C3.456 0.859999 3.962 1.058 4.402 1.454C4.886 1.806 5.128 2.356 5.128 3.104C5.876 2.356 6.844 1.74 8.032 1.256C9.22 0.771999 10.342 0.529999 11.398 0.529999C13.862 0.529999 15.82 1.322 17.272 2.906C18.724 4.49 19.45 6.822 19.45 9.902V18.614C19.45 19.274 19.208 19.78 18.724 20.132C18.24 20.484 17.734 20.66 17.206 20.66ZM31.3532 20.66C29.4172 20.66 27.6572 20.22 26.0732 19.34C24.5332 18.46 23.3232 17.25 22.4432 15.71C21.5632 14.126 21.1232 12.366 21.1232 10.43C21.1232 8.538 21.5632 6.844 22.4432 5.348C23.3232 3.852 24.5332 2.686 26.0732 1.85C27.6572 0.969999 29.4172 0.529999 31.3532 0.529999C33.2892 0.529999 35.0272 0.969999 36.5672 1.85C38.1072 2.686 39.3172 3.852 40.1972 5.348C41.1212 6.844 41.5832 8.538 41.5832 10.43C41.5832 12.366 41.1212 14.126 40.1972 15.71C39.3172 17.25 38.1072 18.46 36.5672 19.34C35.0272 20.22 33.2892 20.66 31.3532 20.66ZM31.3532 16.568C33.0692 16.568 34.4552 16.018 35.5112 14.918C36.5672 13.774 37.0952 12.278 37.0952 10.43C37.0952 8.67 36.5672 7.262 35.5112 6.206C34.4552 5.15 33.0692 4.622 31.3532 4.622C29.5932 4.622 28.1852 5.15 27.1292 6.206C26.1172 7.262 25.6112 8.67 25.6112 10.43C25.6112 12.278 26.1172 13.774 27.1292 14.918C28.1852 16.018 29.5932 16.568 31.3532 16.568ZM53.092 20.66C51.156 20.66 49.396 20.22 47.812 19.34C46.272 18.46 45.062 17.25 44.182 15.71C43.302 14.126 42.862 12.366 42.862 10.43C42.862 8.538 43.302 6.844 44.182 5.348C45.062 3.852 46.272 2.686 47.812 1.85C49.396 0.969999 51.156 0.529999 53.092 0.529999C55.028 0.529999 56.766 0.969999 58.306 1.85C59.846 2.686 61.056 3.852 61.936 5.348C62.86 6.844 63.322 8.538 63.322 10.43C63.322 12.366 62.86 14.126 61.936 15.71C61.056 17.25 59.846 18.46 58.306 19.34C56.766 20.22 55.028 20.66 53.092 20.66ZM53.092 16.568C54.808 16.568 56.194 16.018 57.25 14.918C58.306 13.774 58.834 12.278 58.834 10.43C58.834 8.67 58.306 7.262 57.25 6.206C56.194 5.15 54.808 4.622 53.092 4.622C51.332 4.622 49.924 5.15 48.868 6.206C47.856 7.262 47.35 8.67 47.35 10.43C47.35 12.278 47.856 13.774 48.868 14.918C49.924 16.018 51.332 16.568 53.092 16.568ZM81.8422 20.66C81.2702 20.66 80.7422 20.484 80.2582 20.132C79.8182 19.78 79.5982 19.274 79.5982 18.614V10.298C79.5982 8.362 79.1582 6.932 78.2782 6.008C77.4422 5.084 76.3202 4.622 74.9122 4.622C73.1082 4.622 71.7882 5.216 70.9522 6.404C70.1602 7.548 69.7642 8.824 69.7642 10.232V18.614C69.7642 19.274 69.5222 19.78 69.0382 20.132C68.5982 20.484 68.0922 20.66 67.5202 20.66C66.9482 20.66 66.4202 20.484 65.9362 20.132C65.4962 19.78 65.2762 19.274 65.2762 18.614V3.104C65.2762 2.356 65.4962 1.806 65.9362 1.454C66.4202 1.058 66.9482 0.859999 67.5202 0.859999C68.0922 0.859999 68.5982 1.058 69.0382 1.454C69.5222 1.806 69.7642 2.356 69.7642 3.104C70.5122 2.356 71.4802 1.74 72.6682 1.256C73.8562 0.771999 74.9782 0.529999 76.0342 0.529999C78.4982 0.529999 80.4562 1.322 81.9082 2.906C83.3602 4.49 84.0862 6.822 84.0862 9.902V18.614C84.0862 19.274 83.8442 19.78 83.3602 20.132C82.8762 20.484 82.3702 20.66 81.8422 20.66Z" fill="#191919"/>
</svg>
